<svg xmlns="http://www.w3.org/2000/svg" xmlns:xlink="http://www.w3.org/1999/xlink" width="24" height="24" viewBox="0 0 24 24">
    <defs>
        <path id="t60fl2gvsa" d="M0 0H24V24H0z"/>
    </defs>
    <g fill="none" fill-rule="evenodd">
        <g>
            <mask id="6wx5mpk7zb" fill="#fff">
                <use xlink:href="#t60fl2gvsa"/>
            </mask>
            <path fill="#2E3A59" d="M12 3c-3.87 0-7 3.13-7 7 0 3.5 2.333 7.167 7 11 4.667-3.833 7-7.5 7-11 0-3.87-3.13-7-7-7-2.58 0-2.58 0 0 0zm0 10c1.657 0 3-1.343 3-3s-1.343-3-3-3-3 1.343-3 3 1.343 3 3 3c1.105 0 1.105 0 0 0z" mask="url(#6wx5mpk7zb)"/>
        </g>
    </g>
</svg>
